<svg width="17" height="16" viewBox="0 0 17 16" fill="none" xmlns="http://www.w3.org/2000/svg">
<g clip-path="url(#clip0_51_1716)">
<path d="M14.468 2.66663H13.0236V3.55551H14.3569V13.3333H1.91244V3.55551H3.24577V2.66663H1.80133C1.69743 2.66836 1.5949 2.69055 1.49958 2.73192C1.40426 2.77329 1.31803 2.83303 1.2458 2.90773C1.17358 2.98244 1.11677 3.07063 1.07864 3.16729C1.0405 3.26395 1.02179 3.36718 1.02355 3.47107V13.4177C1.02179 13.5216 1.0405 13.6249 1.07864 13.7215C1.11677 13.8182 1.17358 13.9064 1.2458 13.9811C1.31803 14.0558 1.40426 14.1155 1.49958 14.1569C1.5949 14.1983 1.69743 14.2204 1.80133 14.2222H14.468C14.5719 14.2204 14.6744 14.1983 14.7697 14.1569C14.8651 14.1155 14.9513 14.0558 15.0235 13.9811C15.0958 13.9064 15.1526 13.8182 15.1907 13.7215C15.2288 13.6249 15.2475 13.5216 15.2458 13.4177V3.47107C15.2475 3.36718 15.2288 3.26395 15.1907 3.16729C15.1526 3.07063 15.0958 2.98244 15.0235 2.90773C14.9513 2.83303 14.8651 2.77329 14.7697 2.73192C14.6744 2.69055 14.5719 2.66836 14.468 2.66663V2.66663Z" fill="black"/>
<path d="M3.68945 6.22217H4.57834V7.11106H3.68945V6.22217Z" fill="black"/>
<path d="M6.35742 6.22217H7.24631V7.11106H6.35742V6.22217Z" fill="black"/>
<path d="M9.02344 6.22217H9.91233V7.11106H9.02344V6.22217Z" fill="black"/>
<path d="M11.6895 6.22217H12.5783V7.11106H11.6895V6.22217Z" fill="black"/>
<path d="M3.68945 8.44446H4.57834V9.33335H3.68945V8.44446Z" fill="black"/>
<path d="M6.35742 8.44446H7.24631V9.33335H6.35742V8.44446Z" fill="black"/>
<path d="M9.02344 8.44446H9.91233V9.33335H9.02344V8.44446Z" fill="black"/>
<path d="M11.6895 8.44446H12.5783V9.33335H11.6895V8.44446Z" fill="black"/>
<path d="M3.68945 10.6666H4.57834V11.5555H3.68945V10.6666Z" fill="black"/>
<path d="M6.35742 10.6666H7.24631V11.5555H6.35742V10.6666Z" fill="black"/>
<path d="M9.02344 10.6666H9.91233V11.5555H9.02344V10.6666Z" fill="black"/>
<path d="M11.6895 10.6666H12.5783V11.5555H11.6895V10.6666Z" fill="black"/>
<path d="M4.57921 4.44447C4.69708 4.44447 4.81013 4.39765 4.89348 4.3143C4.97683 4.23095 5.02365 4.1179 5.02365 4.00003V1.33336C5.02365 1.21549 4.97683 1.10244 4.89348 1.01909C4.81013 0.935741 4.69708 0.888916 4.57921 0.888916C4.46134 0.888916 4.34829 0.935741 4.26494 1.01909C4.18159 1.10244 4.13477 1.21549 4.13477 1.33336V4.00003C4.13477 4.1179 4.18159 4.23095 4.26494 4.3143C4.34829 4.39765 4.46134 4.44447 4.57921 4.44447Z" fill="black"/>
<path d="M11.6905 4.44447C11.8084 4.44447 11.9215 4.39765 12.0048 4.3143C12.0882 4.23095 12.135 4.1179 12.135 4.00003V1.33336C12.135 1.21549 12.0882 1.10244 12.0048 1.01909C11.9215 0.935741 11.8084 0.888916 11.6905 0.888916C11.5727 0.888916 11.4596 0.935741 11.3763 1.01909C11.2929 1.10244 11.2461 1.21549 11.2461 1.33336V4.00003C11.2461 4.1179 11.2929 4.23095 11.3763 4.3143C11.4596 4.39765 11.5727 4.44447 11.6905 4.44447Z" fill="black"/>
<path d="M5.91211 2.66663H10.3566V3.55551H5.91211V2.66663Z" fill="black"/>
</g>
<defs>
<clipPath id="clip0_51_1716">
<rect width="16" height="16" fill="white" transform="translate(0.134766)"/>
</clipPath>
</defs>
</svg>
