<svg width="17" height="17" viewBox="0 0 17 17" fill="none" xmlns="http://www.w3.org/2000/svg">
<g clip-path="url(#clip0_51_1282)">
<path d="M8.09896 8.66606C9.93991 8.66606 11.4323 7.17367 11.4323 5.33272C11.4323 3.49177 9.93991 1.99939 8.09896 1.99939C6.25801 1.99939 4.76562 3.49177 4.76562 5.33272C4.76562 7.17367 6.25801 8.66606 8.09896 8.66606Z" stroke="white" stroke-width="1.4105"/>
<path d="M11.4317 9.99939H11.6663C12.1537 9.99953 12.6243 10.1776 12.9896 10.5002C13.355 10.8229 13.5899 11.2678 13.6503 11.7514L13.911 13.8341C13.9345 14.0217 13.9177 14.2121 13.8619 14.3928C13.8062 14.5735 13.7126 14.7402 13.5874 14.8819C13.4623 15.0237 13.3084 15.1371 13.1361 15.2149C12.9637 15.2926 12.7768 15.3328 12.5877 15.3327H3.60901C3.41994 15.3328 3.23301 15.2926 3.06064 15.2149C2.88828 15.1371 2.73442 15.0237 2.60926 14.8819C2.48411 14.7402 2.39054 14.5735 2.33475 14.3928C2.27896 14.2121 2.26224 14.0217 2.28568 13.8341L2.54568 11.7514C2.60615 11.2675 2.84129 10.8224 3.2069 10.4998C3.57251 10.1772 4.0434 9.9992 4.53101 9.99939H4.76501" stroke="white" stroke-width="1.4105" stroke-linecap="round" stroke-linejoin="round"/>
</g>
<defs>
<clipPath id="clip0_51_1282">
<rect width="16" height="16" fill="white" transform="translate(0.0976562 0.666016)"/>
</clipPath>
</defs>
</svg>
