<svg width="17" height="19" viewBox="0 0 17 19" fill="none" xmlns="http://www.w3.org/2000/svg">
<path d="M10.9638 5.62726C11.3616 5.62726 11.7431 5.45811 12.0245 5.15703C12.3058 4.85594 12.4638 4.44759 12.4638 4.02179C12.4638 3.59599 12.3058 3.18764 12.0245 2.88655C11.7431 2.58547 11.3616 2.41632 10.9638 2.41632C10.566 2.41632 10.1844 2.58547 9.90313 2.88655C9.62183 3.18764 9.46379 3.59599 9.46379 4.02179C9.46379 4.44759 9.62183 4.85594 9.90313 5.15703C10.1844 5.45811 10.566 5.62726 10.9638 5.62726ZM7.95046 7.15495C7.53479 7.26555 7.25113 7.43181 7.02213 7.63802C6.67879 7.9477 6.40146 8.39437 6.02679 9.0965C5.93905 9.26081 5.79392 9.38108 5.62332 9.43086C5.45273 9.48064 5.27064 9.45585 5.11713 9.36194C4.96361 9.26802 4.85124 9.11269 4.80473 8.9301C4.75822 8.74751 4.78138 8.55262 4.86913 8.38831C5.24213 7.69011 5.61913 7.03686 6.16346 6.54666C6.73146 6.03433 7.42679 5.74464 8.36446 5.63297C8.75646 5.58659 9.18779 5.59586 9.59213 5.78888C10.0165 5.99188 10.3265 6.35543 10.5378 6.84135C10.8225 7.49531 11.0341 7.88455 11.2035 8.11003C11.2851 8.21848 11.3421 8.26879 11.3745 8.29127C11.4001 8.3091 11.4111 8.31053 11.4151 8.31125H11.4155C11.4445 8.31481 11.5385 8.31125 11.8145 8.18031C11.9348 8.12323 12.0661 8.05473 12.2268 7.97089L12.2651 7.95091C12.4616 7.84713 12.6599 7.74721 12.8598 7.65122C13.0212 7.57538 13.2041 7.57105 13.3685 7.63916C13.5329 7.70728 13.6653 7.8423 13.7369 8.01469C13.8086 8.18709 13.8135 8.38282 13.7506 8.55908C13.6877 8.73533 13.5622 8.87777 13.4015 8.95522C13.2162 9.04421 13.0325 9.13687 12.8505 9.23314L12.8068 9.25597C12.6531 9.33625 12.4985 9.41724 12.3535 9.48574C12.0535 9.62773 11.6701 9.78185 11.2545 9.72798C10.8158 9.6709 10.4778 9.40582 10.1995 9.05012L9.28846 10.9314L10.5485 12.686C10.6235 12.7909 10.6698 12.9157 10.6828 13.047L10.9601 15.8998C10.9707 15.9938 10.9637 16.0891 10.9395 16.1801C10.9153 16.2712 10.8744 16.3562 10.8193 16.4302C10.7641 16.5041 10.6957 16.5656 10.6181 16.6111C10.5405 16.6565 10.4552 16.6849 10.3672 16.6947C10.2793 16.7045 10.1904 16.6955 10.1057 16.6681C10.021 16.6408 9.94225 16.5957 9.87402 16.5354C9.80579 16.4752 9.74944 16.401 9.70825 16.3173C9.66707 16.2335 9.64187 16.1418 9.63413 16.0475L9.37613 13.3956L8.61079 12.3296L8.60413 12.3428L8.57613 12.2814L7.16213 10.312C7.09262 10.2152 7.04747 10.101 7.03102 9.98015C7.01456 9.85934 7.02733 9.73603 7.06813 9.62202L7.95046 7.15495Z" fill="#38BDAC"/>
<path d="M6.94137 11.3381L6.45071 12.7509L4.51737 12.5868C4.42947 12.578 4.34083 12.5881 4.25658 12.6163C4.17233 12.6445 4.09416 12.6904 4.02661 12.7512C3.95905 12.812 3.90345 12.8866 3.86303 12.9706C3.82262 13.0546 3.79819 13.1463 3.79117 13.2405C3.78415 13.3347 3.79468 13.4295 3.82215 13.5192C3.84961 13.609 3.89346 13.6921 3.95116 13.7636C4.00886 13.8351 4.07925 13.8937 4.15825 13.9358C4.23725 13.978 4.32329 14.0029 4.41137 14.0092L6.84737 14.2161C6.99194 14.2285 7.13633 14.19 7.25862 14.1065C7.38091 14.0231 7.47445 13.8992 7.52504 13.7538L7.90004 12.6735L6.94137 11.3381Z" fill="#38BDAC"/>
</svg>
