<svg width="112" height="112" viewBox="0 0 112 112" fill="none" xmlns="http://www.w3.org/2000/svg">
<path fill-rule="evenodd" clip-rule="evenodd" d="M74.9809 34.6804C74.9809 33.722 75.7578 32.9451 76.7162 32.9451H82.5008C83.4592 32.9451 84.2361 33.722 84.2361 34.6804V77.486C84.2361 78.4444 83.4592 79.2213 82.5007 79.2213H76.7162C75.7578 79.2213 74.9809 78.4444 74.9809 77.486V60.1324C74.9809 59.174 74.2039 58.397 73.2455 58.397H50.5851C49.6267 58.397 48.8497 59.174 48.8497 60.1324V77.486C48.8497 78.4444 48.0728 79.2213 47.1144 79.2213H41.3298C40.3714 79.2213 39.5945 78.4444 39.5945 77.486V34.6804C39.5945 33.722 40.3714 32.9451 41.3298 32.9451H47.1144C48.0728 32.9451 48.8497 33.722 48.8497 34.6804V52.034C48.8497 52.9924 49.6267 53.7694 50.5851 53.7694H73.2455C74.2039 53.7694 74.9809 52.9924 74.9809 52.034V34.6804ZM23.9762 53.7694C24.9347 53.7694 25.7116 52.9924 25.7116 52.034V41.6219C25.7116 40.6635 26.4886 39.8865 27.447 39.8865H33.2315C34.1899 39.8865 34.9669 40.6635 34.9669 41.6219V70.5445C34.9669 71.5029 34.1899 72.2799 33.2315 72.2799H27.447C26.4886 72.2799 25.7116 71.5029 25.7116 70.5445V60.1324C25.7116 59.174 24.9347 58.397 23.9762 58.397H22.8193C21.8609 58.397 21.084 57.6201 21.084 56.6617V55.5047C21.084 54.5463 21.8609 53.7694 22.8193 53.7694H23.9762ZM102.747 56.6617C102.747 57.6201 101.97 58.397 101.011 58.397H99.8543C98.8959 58.397 98.119 59.174 98.119 60.1324V70.5445C98.119 71.5029 97.342 72.2799 96.3836 72.2799H90.5991C89.6407 72.2799 88.8637 71.5029 88.8637 70.5445V41.6219C88.8637 40.6635 89.6407 39.8865 90.5991 39.8865H96.3836C97.342 39.8865 98.119 40.6635 98.119 41.6219V52.034C98.119 52.9924 98.8959 53.7694 99.8543 53.7694H101.011C101.97 53.7694 102.747 54.5463 102.747 55.5047V56.6617Z" fill="#ECF0F9"/>
</svg>
