<svg width="93" height="92" viewBox="0 0 93 92" fill="none" xmlns="http://www.w3.org/2000/svg">
<path d="M11.9795 31.5004V31.4489C11.9794 26.3661 13.4847 21.397 16.3056 17.1687C19.1265 12.9405 23.1365 9.6424 27.8297 7.69062C32.5229 5.73884 37.689 5.2208 42.6763 6.20186C47.6636 7.18292 52.2486 9.61913 55.8529 13.2031C58.6887 11.8034 61.8563 11.215 65.0056 11.5027C68.1549 11.7904 71.1634 12.9431 73.6986 14.8334C76.2339 16.7238 78.1973 19.2782 79.3718 22.2144C80.5463 25.1507 80.8862 28.3545 80.354 31.4718C81.1365 31.5444 81.8955 31.7775 82.5838 32.1565C83.2721 32.5356 83.8749 33.0524 84.3546 33.6748C84.8342 34.2972 85.1805 35.0118 85.3717 35.7739C85.5629 36.5361 85.5949 37.3295 85.4659 38.1046C82.8814 53.6515 76.4888 63.492 66.2995 67.6318V71.4742C66.2995 73.7489 65.3958 75.9305 63.7874 77.5389C62.1789 79.1474 59.9973 80.051 57.7226 80.051H34.851C32.5763 80.051 30.3948 79.1474 28.7863 77.5389C27.1778 75.9305 26.2742 73.7489 26.2742 71.4742V67.6318C16.0849 63.492 9.6923 53.6515 7.10782 38.1046C6.98308 37.35 7.01098 36.5782 7.18984 35.8346C7.3687 35.0911 7.6949 34.391 8.14913 33.7758C8.60336 33.1605 9.17639 32.6427 9.83431 32.2528C10.4922 31.863 11.2217 31.609 11.9795 31.5061V31.5004ZM17.6974 31.4489H23.4153C23.4153 27.6577 24.9213 24.0218 27.6021 21.341C30.2829 18.6602 33.9188 17.1542 37.71 17.1542C41.5012 17.1542 45.1371 18.6602 47.8179 21.341C50.4987 24.0218 52.0047 27.6577 52.0047 31.4489H57.7226C57.7226 26.1412 55.6142 21.051 51.8611 17.2979C48.108 13.5448 43.0177 11.4363 37.71 11.4363C32.4023 11.4363 27.312 13.5448 23.5589 17.2979C19.8058 21.051 17.6974 26.1412 17.6974 31.4489ZM29.1331 31.4489H46.2868C46.2868 29.1742 45.3832 26.9926 43.7747 25.3842C42.1663 23.7757 39.9847 22.8721 37.71 22.8721C35.4353 22.8721 33.2537 23.7757 31.6452 25.3842C30.0368 26.9926 29.1331 29.1742 29.1331 31.4489ZM68.3922 31.4489H74.5161C74.9478 29.7591 74.988 27.9931 74.6338 26.2854C74.2795 24.5777 73.5401 22.9734 72.4719 21.5947C71.4037 20.216 70.0349 19.0994 68.4698 18.3299C66.9047 17.5603 65.1846 17.1582 63.4405 17.1542C62.0682 17.1542 60.7645 17.3943 59.5523 17.8346C60.5644 19.4585 61.3992 21.2082 62.0396 23.0436C63.1287 22.7735 64.2731 22.8291 65.3308 23.2036C66.3886 23.578 67.3131 24.2548 67.9896 25.15C68.6662 26.0451 69.065 27.1192 69.1365 28.239C69.2081 29.3588 68.9493 30.4749 68.3922 31.4489ZM60.5816 68.6152H31.9921V71.4742C31.9921 72.2324 32.2933 72.9596 32.8295 73.4958C33.3656 74.0319 34.0928 74.3331 34.851 74.3331H57.7226C58.4809 74.3331 59.208 74.0319 59.7442 73.4958C60.2804 72.9596 60.5816 72.2324 60.5816 71.4742V68.6152ZM29.9794 62.8974H62.5943C71.6628 59.9812 77.4036 51.736 79.828 37.1668H12.7457C15.17 51.736 20.9108 59.9812 29.9794 62.8974Z" fill="#ECF0F9"/>
</svg>
