<svg width="17" height="17" viewBox="0 0 17 17" fill="none" xmlns="http://www.w3.org/2000/svg">
<path d="M12.4577 2.81421C12.621 2.81423 12.7786 2.87418 12.9006 2.98269C13.0226 3.09119 13.1006 3.24071 13.1197 3.40288L13.1243 3.48088V14.1475C13.1242 14.3175 13.0591 14.4809 12.9424 14.6045C12.8258 14.728 12.6664 14.8024 12.4968 14.8123C12.3271 14.8223 12.1601 14.7671 12.0298 14.658C11.8995 14.549 11.8158 14.3943 11.7957 14.2255L11.791 14.1475V10.8142H11.1243C10.9611 10.8142 10.8035 10.7542 10.6814 10.6457C10.5594 10.5372 10.4815 10.3877 10.4623 10.2255L10.4577 10.1475V6.14754C10.4577 4.67421 11.4577 2.81421 12.4577 2.81421ZM8.45768 2.81421C8.62097 2.81423 8.77857 2.87418 8.9006 2.98269C9.02262 3.09119 9.10058 3.24071 9.11968 3.40288L9.12435 3.48088V6.81421C9.12427 7.40546 8.9278 7.97993 8.5658 8.4474C8.20379 8.91486 7.69676 9.24884 7.12435 9.39687V14.1475C7.12416 14.3175 7.0591 14.4809 6.94245 14.6045C6.8258 14.728 6.66638 14.8024 6.49675 14.8123C6.32712 14.8223 6.1601 14.7671 6.02979 14.658C5.89949 14.549 5.81575 14.3943 5.79568 14.2255L5.79102 14.1475V9.39687C5.24132 9.25477 4.75129 8.941 4.39219 8.50122C4.0331 8.06143 3.82366 7.51855 3.79435 6.95154L3.79102 6.81421V3.48088C3.7912 3.31096 3.85627 3.14752 3.97291 3.02396C4.08956 2.90041 4.24898 2.82605 4.41861 2.81609C4.58824 2.80614 4.75527 2.86133 4.88557 2.97039C5.01587 3.07945 5.09961 3.23415 5.11968 3.40288L5.12435 3.48088V6.81421C5.12435 7.04825 5.18597 7.27817 5.30299 7.48086C5.42001 7.68354 5.58833 7.85185 5.79102 7.96888V3.48088C5.7912 3.31096 5.85627 3.14752 5.97291 3.02396C6.08956 2.90041 6.24898 2.82605 6.41861 2.81609C6.58824 2.80614 6.75527 2.86133 6.88557 2.97039C7.01587 3.07945 7.09961 3.23415 7.11968 3.40288L7.12435 3.48088L7.12502 7.96888C7.31106 7.86134 7.46835 7.71043 7.5835 7.529C7.69865 7.34757 7.76824 7.141 7.78635 6.92688L7.79102 6.81421V3.48088C7.79102 3.30406 7.86125 3.1345 7.98628 3.00947C8.1113 2.88445 8.28087 2.81421 8.45768 2.81421Z" fill="#FB7548"/>
</svg>
