<svg width="25" height="25" viewBox="0 0 25 25" fill="none" xmlns="http://www.w3.org/2000/svg">
<path d="M9.70455 7.52509C9.61185 7.6176 9.5383 7.72749 9.48812 7.84846C9.43794 7.96943 9.41211 8.09912 9.41211 8.23009C9.41211 8.36105 9.43794 8.49074 9.48812 8.61171C9.5383 8.73268 9.61185 8.84257 9.70455 8.93509L13.5846 12.8151L9.70455 16.6951C9.51758 16.8821 9.41253 17.1357 9.41253 17.4001C9.41253 17.6645 9.51758 17.9181 9.70455 18.1051C9.89153 18.2921 10.1451 18.3971 10.4096 18.3971C10.674 18.3971 10.9276 18.2921 11.1146 18.1051L15.7046 13.5151C15.7973 13.4226 15.8708 13.3127 15.921 13.1917C15.9712 13.0707 15.997 12.9411 15.997 12.8101C15.997 12.6791 15.9712 12.5494 15.921 12.4285C15.8708 12.3075 15.7973 12.1976 15.7046 12.1051L11.1146 7.51509C10.7346 7.13509 10.0946 7.13509 9.70455 7.52509Z" fill="#191F28"/>
</svg>
