<svg width="31" height="31" viewBox="0 0 31 31" fill="none" xmlns="http://www.w3.org/2000/svg">
<path d="M18.7575 8.64967C18.8734 8.76532 18.9653 8.90268 19.028 9.05389C19.0908 9.20511 19.123 9.36721 19.123 9.53092C19.123 9.69463 19.0908 9.85674 19.028 10.008C18.9653 10.1592 18.8734 10.2965 18.7575 10.4122L13.9075 15.2622L18.7575 20.1122C18.9912 20.3459 19.1225 20.6629 19.1225 20.9934C19.1225 21.324 18.9912 21.641 18.7575 21.8747C18.5238 22.1084 18.2068 22.2397 17.8762 22.2397C17.5457 22.2397 17.2287 22.1084 16.995 21.8747L11.2575 16.1372C11.1416 16.0215 11.0497 15.8842 10.987 15.733C10.9242 15.5817 10.8919 15.4196 10.8919 15.2559C10.8919 15.0922 10.9242 14.9301 10.987 14.7789C11.0497 14.6277 11.1416 14.4903 11.2575 14.3747L16.995 8.63717C17.47 8.16217 18.27 8.16217 18.7575 8.64967Z" fill="#677A90"/>
</svg>
