<svg width="31" height="31" viewBox="0 0 31 31" fill="none" xmlns="http://www.w3.org/2000/svg">
<path d="M12.1722 8.64967C12.0563 8.76532 11.9644 8.90268 11.9017 9.05389C11.8389 9.20511 11.8066 9.36721 11.8066 9.53092C11.8066 9.69463 11.8389 9.85674 11.9017 10.008C11.9644 10.1592 12.0563 10.2965 12.1722 10.4122L17.0222 15.2622L12.1722 20.1122C11.9385 20.3459 11.8072 20.6629 11.8072 20.9934C11.8072 21.324 11.9385 21.641 12.1722 21.8747C12.4059 22.1084 12.7229 22.2397 13.0534 22.2397C13.384 22.2397 13.701 22.1084 13.9347 21.8747L19.6722 16.1372C19.7881 16.0215 19.88 15.8842 19.9427 15.733C20.0055 15.5817 20.0378 15.4196 20.0378 15.2559C20.0378 15.0922 20.0055 14.9301 19.9427 14.7789C19.88 14.6277 19.7881 14.4903 19.6722 14.3747L13.9347 8.63717C13.4597 8.16217 12.6597 8.16217 12.1722 8.64967Z" fill="#677A90"/>
</svg>
