<svg width="17" height="17" viewBox="0 0 17 17" fill="none" xmlns="http://www.w3.org/2000/svg">
<g clip-path="url(#clip0_25_1577)">
<path d="M16.7344 8.78015C16.7344 10.9019 15.8915 12.9367 14.3912 14.437C12.8909 15.9373 10.8561 16.7802 8.73438 16.7802C6.61264 16.7802 4.57781 15.9373 3.07752 14.437C1.57723 12.9367 0.734375 10.9019 0.734375 8.78015C0.734375 6.65842 1.57723 4.62359 3.07752 3.1233C4.57781 1.62301 6.61264 0.780151 8.73438 0.780151C10.8561 0.780151 12.8909 1.62301 14.3912 3.1233C15.8915 4.62359 16.7344 6.65842 16.7344 8.78015ZM12.7644 5.75015C12.6929 5.67897 12.6079 5.62292 12.5143 5.58537C12.4207 5.54781 12.3205 5.52951 12.2197 5.53156C12.1189 5.53362 12.0195 5.55598 11.9275 5.59732C11.8355 5.63866 11.7528 5.69812 11.6844 5.77215L8.21138 10.1972L6.11837 8.10315C5.9762 7.97067 5.78815 7.89855 5.59385 7.90198C5.39955 7.9054 5.21417 7.98412 5.07675 8.12153C4.93934 8.25894 4.86063 8.44433 4.8572 8.63863C4.85377 8.83293 4.92589 9.02098 5.05837 9.16315L7.70437 11.8102C7.77566 11.8813 7.86054 11.9374 7.95396 11.975C8.04738 12.0126 8.14742 12.0311 8.24812 12.0292C8.34882 12.0273 8.44811 12.0052 8.54007 11.9641C8.63203 11.9231 8.71478 11.8639 8.78337 11.7902L12.7754 6.80015C12.9115 6.65865 12.9867 6.46943 12.9848 6.27311C12.9829 6.07679 12.9041 5.88903 12.7654 5.75015H12.7644Z" fill="#5F7BFF"/>
</g>
<defs>
<clipPath id="clip0_25_1577">
<rect width="16" height="16" fill="white" transform="translate(0.734375 0.780151)"/>
</clipPath>
</defs>
</svg>
