<svg width="17" height="17" viewBox="0 0 17 17" fill="none" xmlns="http://www.w3.org/2000/svg">
<g clip-path="url(#clip0_25_1569)">
<path d="M8.73438 15.5972C6.87786 15.5972 5.09738 14.8597 3.78463 13.5469C2.47187 12.2342 1.73438 10.4537 1.73438 8.59717C1.73438 6.74065 2.47187 4.96018 3.78463 3.64742C5.09738 2.33467 6.87786 1.59717 8.73438 1.59717C10.5909 1.59717 12.3714 2.33467 13.6841 3.64742C14.9969 4.96018 15.7344 6.74065 15.7344 8.59717C15.7344 10.4537 14.9969 12.2342 13.6841 13.5469C12.3714 14.8597 10.5909 15.5972 8.73438 15.5972ZM8.73438 16.5972C10.8561 16.5972 12.8909 15.7543 14.3912 14.254C15.8915 12.7537 16.7344 10.7189 16.7344 8.59717C16.7344 6.47544 15.8915 4.4406 14.3912 2.94031C12.8909 1.44002 10.8561 0.597168 8.73438 0.597168C6.61264 0.597168 4.57781 1.44002 3.07752 2.94031C1.57723 4.4406 0.734375 6.47544 0.734375 8.59717C0.734375 10.7189 1.57723 12.7537 3.07752 14.254C4.57781 15.7543 6.61264 16.5972 8.73438 16.5972Z" fill="#677A90"/>
<path d="M11.7047 5.5672C11.6976 5.57411 11.6909 5.58146 11.6847 5.5892L8.21171 10.0142L6.11871 7.9202C5.97654 7.78772 5.78849 7.7156 5.59419 7.71903C5.39989 7.72246 5.2145 7.80117 5.07709 7.93858C4.93968 8.076 4.86097 8.26138 4.85754 8.45568C4.85411 8.64998 4.92623 8.83803 5.05871 8.9802L7.70471 11.6272C7.776 11.6984 7.86088 11.7544 7.9543 11.7921C8.04772 11.8297 8.14776 11.8481 8.24846 11.8463C8.34916 11.8444 8.44845 11.8223 8.54041 11.7812C8.63237 11.7401 8.71512 11.6809 8.78371 11.6072L12.7757 6.6172C12.9116 6.47454 12.986 6.2841 12.9826 6.08707C12.9792 5.89004 12.8985 5.70225 12.7578 5.5643C12.6171 5.42634 12.4277 5.34931 12.2306 5.34986C12.0336 5.3504 11.8447 5.42848 11.7047 5.5672Z" fill="#677A90"/>
</g>
<defs>
<clipPath id="clip0_25_1569">
<rect width="16" height="16" fill="white" transform="translate(0.734375 0.597168)"/>
</clipPath>
</defs>
</svg>
