<svg width="206" height="132" viewBox="0 0 206 132" fill="none" xmlns="http://www.w3.org/2000/svg">
<rect x="5.58398" y="89.467" width="2.40442" height="16.6154" rx="1.20221" transform="rotate(-45 5.58398 89.467)" fill="#FCC21B"/>
<rect x="46.6152" y="122.746" width="2.40442" height="16.6154" rx="1.20221" transform="rotate(135 46.6152 122.746)" fill="#FCC21B"/>
<rect x="0.130859" y="106.889" width="2.40442" height="16.6154" rx="1.20221" transform="rotate(-90 0.130859 106.889)" fill="#FCC21B"/>
<rect x="52.0684" y="105.324" width="2.40442" height="16.6154" rx="1.20221" transform="rotate(90 52.0684 105.324)" fill="#FCC21B"/>
<rect x="4.36914" y="120.09" width="2.40442" height="16.6154" rx="1.20221" transform="rotate(-118.041 4.36914 120.09)" fill="#FCC21B"/>
<rect x="47.8301" y="92.1228" width="2.40442" height="16.6154" rx="1.20221" transform="rotate(61.9593 47.8301 92.1228)" fill="#FCC21B"/>
<rect x="19.0352" y="131.173" width="2.40442" height="16.6154" rx="1.20221" transform="rotate(-165 19.0352 131.173)" fill="#FCC21B"/>
<rect x="33.8008" y="131.173" width="2.40442" height="16.6154" rx="1.20221" transform="rotate(165 33.8008 131.173)" fill="#FCC21B"/>
<rect x="24.3242" y="97.1862" width="2.40442" height="16.6154" rx="1.20221" transform="rotate(165 24.3242 97.1862)" fill="#FCC21B"/>
<rect x="33.166" y="81.04" width="2.40442" height="16.6154" rx="1.20221" transform="rotate(15 33.166 81.04)" fill="#FCC21B"/>
<rect x="140.496" y="12.2452" width="3.34357" height="23.1053" rx="1.67179" transform="rotate(-45 140.496 12.2452)" fill="#FCC21B"/>
<rect x="197.553" y="58.5228" width="3.34357" height="23.1053" rx="1.67179" transform="rotate(135 197.553 58.5228)" fill="#FCC21B"/>
<rect x="132.912" y="36.4717" width="3.34357" height="23.1053" rx="1.67179" transform="rotate(-90 132.912 36.4717)" fill="#FCC21B"/>
<rect x="205.137" y="34.2963" width="3.34357" height="23.1053" rx="1.67179" transform="rotate(90 205.137 34.2963)" fill="#FCC21B"/>
<rect x="138.807" y="54.8296" width="3.34357" height="23.1053" rx="1.67179" transform="rotate(-118.041 138.807 54.8296)" fill="#FCC21B"/>
<rect x="199.242" y="15.9384" width="3.34357" height="23.1053" rx="1.67179" transform="rotate(61.9593 199.242 15.9384)" fill="#FCC21B"/>
<rect x="159.199" y="70.2412" width="3.34357" height="23.1053" rx="1.67179" transform="rotate(-165 159.199 70.2412)" fill="#FCC21B"/>
<rect x="179.734" y="70.2412" width="3.34357" height="23.1053" rx="1.67179" transform="rotate(165 179.734 70.2412)" fill="#FCC21B"/>
<rect x="166.555" y="22.9794" width="3.34357" height="23.1053" rx="1.67179" transform="rotate(165 166.555 22.9794)" fill="#FCC21B"/>
<rect x="178.85" y="0.526733" width="3.34357" height="23.1053" rx="1.67179" transform="rotate(15 178.85 0.526733)" fill="#FCC21B"/>
<path d="M133.299 86.4014C137.571 79.8307 148.979 69.9877 162.476 80.5453C162.485 80.5522 162.493 80.5598 162.501 80.5681C168.095 86.7231 175.245 101.41 159.174 111.019C143.156 121.721 100.319 136.204 57.0703 108.571C57.0315 108.546 57.0028 108.512 56.9888 108.468C55.1557 102.718 56.7141 82.7477 77.525 48.228C82.5675 38.0737 97.0045 19.6716 114.412 27.2977C117.723 28.7465 124.012 34.1642 122.706 44.2527C122.703 44.2773 122.695 44.3008 122.683 44.3225C120.73 47.8494 114.475 54.1793 104.9 51.5493C104.886 51.5456 104.874 51.5407 104.861 51.5344C102.793 50.4664 98.9748 48.0979 98.9531 46.5956C96.7434 50.6201 94.1033 56.0739 94.1033 59.004C94.1033 64.707 98.0883 79.1464 90.6362 91.6453C98.1272 82.7994 109.654 72.2895 117.935 74.9607C127.687 78.1067 131.868 83.6157 132.92 86.3546C132.982 86.5156 133.205 86.546 133.299 86.4014Z" fill="url(#paint0_linear_25_1671)"/>
<path d="M159.174 111.019C175.245 101.41 168.095 86.7231 162.501 80.5681C162.493 80.5598 162.485 80.5522 162.476 80.5453C148.979 69.9877 137.571 79.8307 133.299 86.4014C133.205 86.546 132.982 86.5156 132.92 86.3546C131.868 83.6157 127.687 78.1067 117.935 74.9607C108.359 71.8718 94.4433 86.4082 87.4462 95.6158C87.2977 95.8112 87.5005 95.9666 87.6602 95.7802C99.0367 82.5105 94.1033 65.3494 94.1033 59.004C94.1033 52.3726 107.627 32.8135 99.0768 46.1557C98.1583 47.589 102.577 50.3549 104.861 51.5344C104.874 51.5407 104.886 51.5456 104.9 51.5493C114.475 54.1793 120.73 47.8494 122.683 44.3225C122.695 44.3008 122.703 44.2773 122.706 44.2527C124.012 34.1642 117.723 28.7465 114.412 27.2977C97.0045 19.6716 82.5675 38.0737 77.525 48.228C56.7141 82.7477 55.1557 102.718 56.9888 108.468C57.0028 108.512 57.0315 108.546 57.0703 108.571C100.319 136.204 143.156 121.721 159.174 111.019Z" stroke="#FFB497" stroke-width="3" stroke-linejoin="round"/>
<defs>
<linearGradient id="paint0_linear_25_1671" x1="112.721" y1="25.4946" x2="112.721" y2="124.505" gradientUnits="userSpaceOnUse">
<stop stop-color="#FFD4C4"/>
<stop offset="1" stop-color="#FFAB8B" stop-opacity="0.3"/>
</linearGradient>
</defs>
</svg>
