<svg width="10" height="12" viewBox="0 0 10 12" fill="none" xmlns="http://www.w3.org/2000/svg">
<path d="M8.99967 0C9.16296 2.15404e-05 9.32056 0.0599708 9.44259 0.168477C9.56461 0.276983 9.64257 0.426499 9.66167 0.588667L9.66634 0.666667V11.3333C9.66615 11.5033 9.60109 11.6667 9.48444 11.7902C9.3678 11.9138 9.20837 11.9882 9.03874 11.9981C8.86912 12.0081 8.70209 11.9529 8.57179 11.8438C8.44148 11.7348 8.35774 11.5801 8.33767 11.4113L8.33301 11.3333V8H7.66634C7.50305 7.99998 7.34545 7.94003 7.22343 7.83152C7.1014 7.72302 7.02345 7.5735 7.00434 7.41133L6.99967 7.33333V3.33333C6.99967 1.86 7.99967 0 8.99967 0ZM4.99967 0C5.16296 2.15404e-05 5.32057 0.0599708 5.44259 0.168477C5.56461 0.276983 5.64257 0.426499 5.66167 0.588667L5.66634 0.666667V4C5.66626 4.59125 5.46979 5.16572 5.10779 5.63319C4.74578 6.10065 4.23876 6.43463 3.66634 6.58267V11.3333C3.66615 11.5033 3.60109 11.6667 3.48444 11.7902C3.3678 11.9138 3.20837 11.9882 3.03874 11.9981C2.86912 12.0081 2.70209 11.9529 2.57179 11.8438C2.44148 11.7348 2.35774 11.5801 2.33767 11.4113L2.33301 11.3333V6.58267C1.78331 6.44056 1.29328 6.1268 0.934184 5.68701C0.575088 5.24722 0.365655 4.70435 0.336341 4.13733L0.333008 4V0.666667C0.333196 0.496747 0.39826 0.333312 0.514907 0.209754C0.631553 0.0861971 0.790977 0.0118433 0.960604 0.00188526C1.13023 -0.00807282 1.29726 0.0471164 1.42756 0.156177C1.55786 0.265237 1.64161 0.419936 1.66167 0.588667L1.66634 0.666667V4C1.66635 4.23404 1.72796 4.46396 1.84498 4.66665C1.96201 4.86933 2.13032 5.03765 2.33301 5.15467V0.666667C2.3332 0.496747 2.39826 0.333312 2.51491 0.209754C2.63155 0.0861971 2.79098 0.0118433 2.9606 0.00188526C3.13023 -0.00807282 3.29726 0.0471164 3.42756 0.156177C3.55786 0.265237 3.64161 0.419936 3.66167 0.588667L3.66634 0.666667L3.66701 5.15467C3.85305 5.04713 4.01034 4.89622 4.12549 4.71479C4.24064 4.53336 4.31023 4.32679 4.32834 4.11267L4.33301 4V0.666667C4.33301 0.489856 4.40325 0.320286 4.52827 0.195262C4.65329 0.0702379 4.82286 0 4.99967 0V0Z" fill="#677A90"/>
</svg>
