<svg width="102" height="75" viewBox="0 0 102 75" fill="none" xmlns="http://www.w3.org/2000/svg">
<rect x="1.5" y="1.5" width="98.3951" height="71.9954" rx="7.53244" fill="url(#paint0_linear_586_113)" stroke="#E4BFA4" stroke-width="3"/>
<path d="M4.27539 4.8711L50.4398 43.0213L98.2147 4.08887" stroke="#E4BFA4" stroke-width="3"/>
<path d="M62.4775 33.2507L62.4767 33.2499C61.7533 32.5408 60.9004 31.9772 59.9643 31.5899L59.963 31.5894C58.9919 31.186 57.9504 30.9795 56.8988 30.982L56.8965 30.982C55.4184 30.982 53.9782 31.3866 52.7274 32.1496L52.7274 32.1497C52.4281 32.3322 52.1445 32.5322 51.8763 32.7498L51.2464 33.2608L50.6164 32.7498C50.3482 32.5322 50.0647 32.3322 49.7654 32.1497L49.7654 32.1496C48.5146 31.3866 47.0743 30.982 45.5962 30.982C44.5301 30.982 43.5016 31.1857 42.5298 31.5894L42.5287 31.5899C41.589 31.9789 40.7432 32.5377 40.0157 33.2502L40.0144 33.2516L40.0144 33.2516C39.2927 33.9557 38.7162 34.7947 38.3175 35.7208L62.4775 33.2507ZM62.4775 33.2507C63.1987 33.9561 63.7755 34.7953 64.1755 35.7214C64.5901 36.685 64.801 37.705 64.798 38.7559V38.7587C64.798 39.7438 64.5969 40.7919 64.18 41.8819L64.1791 41.8842M62.4775 33.2507L64.1791 41.8842M44.189 49.6781L44.1891 49.6782C45.7178 51.0899 47.2429 52.2867 48.4039 53.1414C48.9836 53.5682 49.4706 53.9082 49.8192 54.1456C49.9935 54.2642 50.1329 54.357 50.2317 54.4219C50.2811 54.4544 50.3201 54.4798 50.348 54.4977C50.3783 54.5172 50.3904 54.5248 50.3891 54.524L50.397 54.5289L50.4049 54.5339L51.2014 55.0448C51.2016 55.0449 51.2017 55.045 51.2018 55.045C51.2273 55.0611 51.262 55.0611 51.2876 55.045C51.2877 55.045 51.2878 55.0449 51.288 55.0448L52.0845 54.5339L52.0847 54.5338C52.1963 54.4623 55.2331 52.5076 58.3004 49.6781C60.1458 47.9743 61.6087 46.3148 62.6593 44.7486L44.189 49.6781ZM44.189 49.6781C42.3434 47.9742 40.8805 46.3145 39.8299 44.7482L44.189 49.6781ZM64.1791 41.8842C63.8338 42.7938 63.3232 43.7574 62.6594 44.7484L64.1791 41.8842ZM37.6914 38.7587C37.6914 37.7057 37.9028 36.6846 38.3175 35.7209L38.3092 41.8814C37.8925 40.7916 37.6914 39.7436 37.6914 38.7587ZM39.8298 44.7481C39.1673 43.7591 38.6591 42.7948 38.3094 41.8819L39.8298 44.7481Z" fill="url(#paint1_linear_586_113)" stroke="#DB6868" stroke-width="2"/>
<defs>
<linearGradient id="paint0_linear_586_113" x1="50.6976" y1="0" x2="50.6976" y2="74.9954" gradientUnits="userSpaceOnUse">
<stop stop-color="#FFECD6"/>
<stop offset="0.616505" stop-color="white"/>
</linearGradient>
<linearGradient id="paint1_linear_586_113" x1="51.2447" y1="29.9819" x2="51.2447" y2="56.0571" gradientUnits="userSpaceOnUse">
<stop stop-color="#EF9E9E"/>
<stop offset="1" stop-color="#FF9494"/>
</linearGradient>
</defs>
</svg>
