<svg width="21" height="28" viewBox="0 0 21 28" fill="none" xmlns="http://www.w3.org/2000/svg">
<g clip-path="url(#clip0_51_1277)">
<path d="M9.55282 0.715332C10.1257 0.335124 10.8757 0.335124 11.4487 0.715332L12.3757 1.32471C12.6882 1.52783 13.0528 1.62679 13.4226 1.60596L14.532 1.53825C15.2195 1.49658 15.8653 1.87158 16.1726 2.48617L16.6726 3.48096C16.8393 3.81429 17.1101 4.07992 17.4382 4.24658L18.4435 4.75179C19.058 5.05908 19.433 5.70492 19.3914 6.39242L19.3237 7.50179C19.3028 7.87158 19.4018 8.24137 19.6049 8.54867L20.2195 9.47575C20.5997 10.0487 20.5997 10.7987 20.2195 11.3716L19.6049 12.3039C19.4018 12.6164 19.3028 12.981 19.3237 13.3507L19.3914 14.4601C19.433 15.1476 19.058 15.7935 18.4435 16.1007L17.4487 16.6007C17.1153 16.7674 16.8497 17.0382 16.683 17.3664L16.1778 18.3716C15.8705 18.9862 15.2247 19.3612 14.5372 19.3195L13.4278 19.2518C13.058 19.231 12.6882 19.3299 12.3809 19.533L11.4539 20.1476C10.8809 20.5278 10.1309 20.5278 9.55803 20.1476L8.62574 19.533C8.31324 19.3299 7.94866 19.231 7.57887 19.2518L6.46949 19.3195C5.78199 19.3612 5.13616 18.9862 4.82887 18.3716L4.32887 17.3768C4.1622 17.0435 3.89137 16.7778 3.56324 16.6112L2.55803 16.106C1.94345 15.7987 1.56845 15.1528 1.61012 14.4653L1.67782 13.356C1.69866 12.9862 1.5997 12.6164 1.39657 12.3091L0.787199 11.3768C0.406991 10.8039 0.406991 10.0539 0.787199 9.48096L1.39657 8.55387C1.5997 8.24137 1.69866 7.87679 1.67782 7.507L1.61012 6.39762C1.56845 5.71012 1.94345 5.06429 2.55803 4.757L3.55282 4.257C3.88616 4.08512 4.15699 3.81429 4.32366 3.48096L4.82366 2.48617C5.13095 1.87158 5.77678 1.49658 6.46428 1.53825L7.57366 1.60596C7.94345 1.62679 8.31324 1.52783 8.62053 1.32471L9.55282 0.715332ZM14.6674 10.4289C14.6674 8.12679 12.8028 6.26221 10.5007 6.26221C8.19866 6.26221 6.33407 8.12679 6.33407 10.4289C6.33407 12.731 8.19866 14.5955 10.5007 14.5955C12.8028 14.5955 14.6674 12.731 14.6674 10.4289ZM0.568449 23.4393L2.81324 18.1007C2.82366 18.106 2.82887 18.1112 2.83407 18.1216L3.33407 19.1164C3.94345 20.3247 5.20907 21.0591 6.56324 20.981L7.67262 20.9132C7.68303 20.9132 7.69866 20.9132 7.70907 20.9237L8.63616 21.5382C8.90178 21.7101 9.18303 21.8455 9.4747 21.9393L7.51637 26.5903C7.39657 26.8768 7.13095 27.0695 6.82366 27.0955C6.51637 27.1216 6.21949 26.981 6.05282 26.7205L4.37574 24.1528L1.45387 24.5851C1.15699 24.6268 0.860116 24.507 0.672616 24.2726C0.485116 24.0382 0.448657 23.7153 0.563241 23.4393H0.568449ZM13.4851 26.5851L11.5268 21.9393C11.8184 21.8455 12.0997 21.7153 12.3653 21.5382L13.2924 20.9237C13.3028 20.9185 13.3132 20.9132 13.3289 20.9132L14.4382 20.981C15.7924 21.0591 17.058 20.3247 17.6674 19.1164L18.1674 18.1216C18.1726 18.1112 18.1778 18.106 18.1882 18.1007L20.4382 23.4393C20.5528 23.7153 20.5112 24.033 20.3289 24.2726C20.1466 24.5122 19.8445 24.632 19.5476 24.5851L16.6257 24.1528L14.9487 26.7153C14.782 26.9757 14.4851 27.1164 14.1778 27.0903C13.8705 27.0643 13.6049 26.8664 13.4851 26.5851Z" fill="#7CA4F9"/>
</g>
<defs>
<clipPath id="clip0_51_1277">
<rect width="20" height="26.6667" fill="white" transform="translate(0.5 0.428833)"/>
</clipPath>
</defs>
</svg>
