<svg width="11" height="14" viewBox="0 0 11 14" fill="none" xmlns="http://www.w3.org/2000/svg">
<path d="M8.16594 3.33337C8.56377 3.33337 8.9453 3.17534 9.2266 2.89403C9.5079 2.61273 9.66594 2.2312 9.66594 1.83337C9.66594 1.43555 9.5079 1.05402 9.2266 0.772714C8.9453 0.491409 8.56377 0.333374 8.16594 0.333374C7.76812 0.333374 7.38659 0.491409 7.10528 0.772714C6.82398 1.05402 6.66594 1.43555 6.66594 1.83337C6.66594 2.2312 6.82398 2.61273 7.10528 2.89403C7.38659 3.17534 7.76812 3.33337 8.16594 3.33337ZM5.15261 4.76071C4.73694 4.86404 4.45327 5.01937 4.22427 5.21204C3.88094 5.50137 3.60361 5.91871 3.22894 6.57471C3.1412 6.72822 2.99607 6.8406 2.82547 6.88711C2.65487 6.93361 2.47279 6.91045 2.31927 6.82271C2.16576 6.73497 2.05338 6.58983 2.00688 6.41924C1.96037 6.24864 1.98353 6.06656 2.07127 5.91304C2.44427 5.26071 2.82127 4.65037 3.36561 4.19237C3.93361 3.71371 4.62894 3.44304 5.56661 3.33871C5.95861 3.29537 6.38994 3.30404 6.79427 3.48437C7.21861 3.67404 7.52861 4.01371 7.73994 4.46771C8.02461 5.07871 8.23627 5.44237 8.40561 5.65304C8.48727 5.75437 8.54427 5.80137 8.57661 5.82237C8.60227 5.83904 8.61327 5.84037 8.61727 5.84104H8.61761C8.64661 5.84437 8.74061 5.84104 9.01661 5.71871C9.13694 5.66537 9.26827 5.60137 9.42894 5.52304L9.46727 5.50437C9.66377 5.40741 9.86202 5.31406 10.0619 5.22437C10.2233 5.15352 10.4062 5.14947 10.5706 5.21311C10.735 5.27675 10.8675 5.4029 10.9391 5.56397C11.0107 5.72504 11.0156 5.90791 10.9527 6.07259C10.8899 6.23727 10.7643 6.37034 10.6036 6.44271C10.4184 6.52586 10.2347 6.61243 10.0526 6.70237L10.0089 6.72371C9.85527 6.79871 9.70061 6.87437 9.55561 6.93837C9.25561 7.07104 8.87227 7.21504 8.45661 7.16471C8.01794 7.11137 7.67994 6.86371 7.40161 6.53137L6.49061 8.28904L7.75061 9.92837C7.82561 10.0264 7.87194 10.143 7.88494 10.2657L8.16227 12.931C8.17284 13.0189 8.16583 13.1079 8.14164 13.193C8.11746 13.2781 8.07658 13.3575 8.0214 13.4266C7.96622 13.4957 7.89784 13.5532 7.82024 13.5956C7.74263 13.638 7.65736 13.6646 7.56939 13.6738C7.48142 13.6829 7.3925 13.6745 7.30782 13.6489C7.22315 13.6234 7.1444 13.5812 7.07617 13.525C7.00793 13.4687 6.95159 13.3994 6.9104 13.3211C6.86921 13.2428 6.84402 13.1572 6.83627 13.069L6.57827 10.5914L5.81294 9.59537L5.80627 9.60771L5.77827 9.55037L4.36427 7.71037C4.29476 7.61994 4.24962 7.51318 4.23316 7.4003C4.21671 7.28743 4.22948 7.17223 4.27027 7.06571L5.15261 4.76071Z" fill="#677A90"/>
<path d="M4.14352 8.66907L3.65285 9.98907L1.71952 9.83573C1.63162 9.82757 1.54298 9.83695 1.45873 9.86332C1.37448 9.88969 1.29631 9.93253 1.22875 9.98935C1.1612 10.0462 1.1056 10.1158 1.06518 10.1943C1.02477 10.2728 1.00034 10.3585 0.993321 10.4465C0.986303 10.5345 0.996831 10.6231 1.02429 10.707C1.05176 10.7908 1.09561 10.8685 1.15331 10.9353C1.21101 11.0021 1.2814 11.0568 1.3604 11.0962C1.4394 11.1356 1.52544 11.1589 1.61352 11.1647L4.04952 11.3581C4.19409 11.3696 4.33847 11.3336 4.46077 11.2557C4.58306 11.1777 4.6766 11.062 4.72719 10.9261L5.10219 9.91673L4.14352 8.66907Z" fill="#677A90"/>
</svg>
