<svg width="513" height="512" viewBox="0 0 513 512" fill="none" xmlns="http://www.w3.org/2000/svg">
<rect x="0.149414" width="512" height="512" rx="51.2" fill="white"/>
<path d="M79.7588 429.459H92.5998V402.046C95.0526 399.665 96.7839 398.367 99.6696 398.367C102.916 398.367 104.431 399.954 104.431 405.653V429.459H117.272V404.066C117.272 393.822 113.448 387.401 104.503 387.401C98.9482 387.401 94.9083 390.215 91.9505 392.956L92.5998 385.67V371.819H79.7588V429.459Z" fill="#677A90"/>
<path d="M145.854 430.469C150.615 430.469 156.242 428.81 160.499 425.78L156.242 418.061C153.285 419.793 150.543 420.658 147.586 420.658C142.391 420.658 138.496 418.35 137.342 412.723H161.436C161.725 411.713 162.014 409.476 162.014 407.168C162.014 395.986 156.242 387.401 144.411 387.401C134.528 387.401 124.933 395.625 124.933 408.899C124.933 422.534 134.023 430.469 145.854 430.469ZM137.125 404.282C137.991 399.449 141.093 397.213 144.628 397.213C149.317 397.213 151.12 400.242 151.12 404.282H137.125Z" fill="#677A90"/>
<path d="M181.903 430.469C184.789 430.469 186.881 429.964 188.251 429.387L186.736 419.937C186.015 420.081 185.726 420.081 185.294 420.081C184.284 420.081 183.057 419.288 183.057 416.546V371.819H170.216V416.113C170.216 424.698 173.102 430.469 181.903 430.469Z" fill="#677A90"/>
<path d="M205.856 430.469C208.741 430.469 210.834 429.964 212.204 429.387L210.689 419.937C209.968 420.081 209.679 420.081 209.246 420.081C208.236 420.081 207.01 419.288 207.01 416.546V371.819H194.169V416.113C194.169 424.698 197.055 430.469 205.856 430.469Z" fill="#677A90"/>
<path d="M230.386 430.469C241.568 430.469 247.483 424.626 247.483 417.051C247.483 409.621 241.784 406.663 236.662 404.715C232.406 403.2 228.871 402.262 228.871 399.81C228.871 397.862 230.242 396.852 233.199 396.852C235.869 396.852 238.754 398.223 241.712 400.315L247.411 392.668C243.948 389.998 239.187 387.401 232.767 387.401C223.172 387.401 216.896 392.668 216.896 400.387C216.896 407.24 222.45 410.559 227.356 412.506C231.54 414.166 235.508 415.32 235.508 417.773C235.508 419.793 234.065 421.019 230.674 421.019C227.428 421.019 224.038 419.504 220.286 416.69L214.587 424.698C218.771 428.161 225.047 430.469 230.386 430.469Z" fill="black"/>
<path d="M254.897 429.459H267.738V402.046C270.118 399.521 272.355 398.367 274.23 398.367C277.477 398.367 278.992 399.954 278.992 405.653V429.459H291.833V402.046C294.285 399.521 296.522 398.367 298.397 398.367C301.644 398.367 303.087 399.954 303.087 405.653V429.459H315.928V404.066C315.928 393.822 312.032 387.401 303.087 387.401C297.604 387.401 293.78 390.576 290.246 394.183C288.154 389.782 284.691 387.401 278.992 387.401C273.437 387.401 269.902 390.215 266.511 393.606H266.295L265.357 388.411H254.897V429.459Z" fill="black"/>
<path d="M336.369 430.469C340.914 430.469 344.737 428.377 348.128 425.347H348.488L349.354 429.459H359.814V406.158C359.814 393.317 353.827 387.401 343.222 387.401C336.802 387.401 330.958 389.566 325.548 392.812L330.02 401.252C334.132 398.944 337.523 397.645 340.769 397.645C344.953 397.645 346.685 399.593 346.973 402.912C330.958 404.643 324.177 409.332 324.177 417.989C324.177 424.842 328.794 430.469 336.369 430.469ZM340.769 420.514C338.1 420.514 336.369 419.36 336.369 416.979C336.369 414.093 338.966 411.713 346.973 410.703V417.268C345.098 419.288 343.366 420.514 340.769 420.514Z" fill="black"/>
<path d="M383.846 430.469C388.03 430.469 390.988 429.604 393.152 428.954L391.132 419.648C390.122 420.009 388.68 420.442 387.381 420.442C384.351 420.442 382.187 418.638 382.187 414.093V398.439H391.854V388.411H382.187V377.518H371.582L370.139 388.411L363.791 388.916V398.439H369.346V414.238C369.346 423.905 373.53 430.469 383.846 430.469Z" fill="black"/>
<path d="M416.381 430.469C421.142 430.469 426.769 428.81 431.025 425.78L426.769 418.061C423.811 419.793 421.07 420.658 418.112 420.658C412.918 420.658 409.023 418.35 407.868 412.723H431.963C432.252 411.713 432.54 409.476 432.54 407.168C432.54 395.986 426.769 387.401 414.938 387.401C405.055 387.401 395.46 395.625 395.46 408.899C395.46 422.534 404.55 430.469 416.381 430.469ZM407.652 404.282C408.518 399.449 411.62 397.213 415.155 397.213C419.844 397.213 421.647 400.242 421.647 404.282H407.652Z" fill="black"/>
<g filter="url(#filter0_d_86_2411)">
<path fill-rule="evenodd" clip-rule="evenodd" d="M148.142 98.5968C148.142 89.1711 155.783 81.5302 165.208 81.5302H194.408C202.182 81.5302 208.742 86.7275 210.802 93.8369C210.825 93.8616 210.844 93.8901 210.858 93.9222C218.175 110.076 228.184 148.116 212.567 176.53H299.866C299.745 176.346 299.624 176.157 299.502 175.964C281.349 147.268 294.129 108.341 301.727 91.6303C301.775 91.5255 301.87 91.4574 301.984 91.44L302.048 91.4302C304.756 85.5848 310.676 81.5302 317.542 81.5302H347.075C356.501 81.5302 364.142 89.1712 364.142 98.5968V291.03C364.142 308.611 349.889 322.863 332.308 322.863C318.456 322.863 306.671 314.016 302.294 301.664C320.856 266.815 308.453 243.577 296.412 233.106C294.924 231.454 293.093 230.116 291.032 229.206C290.97 229.17 290.908 229.134 290.847 229.099L290.848 229.126C288.942 228.313 286.844 227.863 284.642 227.863H227.308C222.779 227.863 218.694 229.765 215.808 232.814C203.189 242.958 189.431 266.634 208.763 303.365L208.916 303.689C204.07 314.966 192.861 322.863 179.808 322.863C162.319 322.863 148.142 308.686 148.142 291.197V98.5968Z" fill="url(#paint0_radial_86_2411)"/>
</g>
<circle cx="222.58" cy="307.619" r="9.10498" fill="#617CF9"/>
<circle cx="289.777" cy="307.619" r="9.10498" fill="#617CF9"/>
<defs>
<filter id="filter0_d_86_2411" x="122.542" y="55.9302" width="267.2" height="292.533" filterUnits="userSpaceOnUse" color-interpolation-filters="sRGB">
<feFlood flood-opacity="0" result="BackgroundImageFix"/>
<feColorMatrix in="SourceAlpha" type="matrix" values="0 0 0 0 0 0 0 0 0 0 0 0 0 0 0 0 0 0 127 0" result="hardAlpha"/>
<feOffset/>
<feGaussianBlur stdDeviation="12.8"/>
<feComposite in2="hardAlpha" operator="out"/>
<feColorMatrix type="matrix" values="0 0 0 0 0.380392 0 0 0 0 0.486275 0 0 0 0 0.976471 0 0 0 0.25 0"/>
<feBlend mode="normal" in2="BackgroundImageFix" result="effect1_dropShadow_86_2411"/>
<feBlend mode="normal" in="SourceGraphic" in2="effect1_dropShadow_86_2411" result="shape"/>
</filter>
<radialGradient id="paint0_radial_86_2411" cx="0" cy="0" r="1" gradientUnits="userSpaceOnUse" gradientTransform="translate(256.142 202.197) rotate(90) scale(234.588 209.963)">
<stop stop-color="#5F7BFF"/>
<stop offset="1" stop-color="#697FE8"/>
</radialGradient>
</defs>
</svg>
