<svg width="161" height="108" viewBox="0 0 161 108" fill="none" xmlns="http://www.w3.org/2000/svg">
<rect x="55.8633" y="5.77222" width="84.1074" height="52.3782" rx="1.5" fill="#FFB79F" stroke="#FB7548" stroke-width="3"/>
<rect x="48.5352" y="1.71802" width="12.1846" height="103.8" rx="5" fill="url(#paint0_linear_34_23)" stroke="#C7AE95" stroke-width="3"/>
<path d="M16.4674 13.1093C16.9987 11.9145 18.6352 11.8564 19.2765 12.9301L19.3693 13.1093L21.0073 16.7956C22.4376 20.0133 24.8162 22.7177 27.825 24.5471L28.3312 24.8442L31.2394 26.479C31.4706 26.6085 31.6657 26.7937 31.807 27.0179C31.9483 27.242 32.0312 27.498 32.0482 27.7624C32.0653 28.0268 32.0159 28.2912 31.9045 28.5317C31.7932 28.7721 31.6234 28.9808 31.4107 29.1389L31.241 29.2489L28.3312 30.8838C25.2617 32.6104 22.7926 35.233 21.2541 38.401L21.0073 38.9324L19.3693 42.6187C18.838 43.8134 17.2015 43.8716 16.5601 42.7979L16.4674 42.6187L14.8294 38.9324C13.3991 35.7146 11.0205 33.0103 8.01165 31.1809L7.50547 30.8838L4.59728 29.2489C4.36609 29.1195 4.17096 28.9342 4.02969 28.7101C3.88841 28.4859 3.80547 28.23 3.78844 27.9656C3.77141 27.7012 3.82082 27.4367 3.93216 27.1963C4.04351 26.9558 4.21326 26.7471 4.42594 26.5891L4.59571 26.479L7.50547 24.8442C10.575 23.1176 13.0441 20.4949 14.5826 17.3269L14.8294 16.7956L16.4674 13.1093ZM30.8417 12.3343C31.622 14.1068 32.9527 15.5808 34.6365 16.5378C34.888 16.6793 34.888 17.0408 34.6365 17.1823C32.9518 18.1394 31.6205 19.614 30.8401 21.3874C30.8102 21.4541 30.7617 21.5108 30.7003 21.5506C30.639 21.5904 30.5674 21.6115 30.4943 21.6115C30.4211 21.6115 30.3496 21.5904 30.2882 21.5506C30.2268 21.5108 30.1783 21.4541 30.1484 21.3874C29.3677 19.6146 28.0365 18.1405 26.3521 17.1839C26.2952 17.1514 26.2479 17.1045 26.2151 17.0479C26.1822 16.9913 26.1649 16.9271 26.1649 16.8616C26.1649 16.7962 26.1822 16.7319 26.2151 16.6753C26.2479 16.6187 26.2952 16.5718 26.3521 16.5393C28.037 15.5819 29.3683 14.1067 30.1484 12.3327C30.1783 12.2659 30.2268 12.2092 30.2882 12.1695C30.3496 12.1297 30.4211 12.1085 30.4943 12.1085C30.5674 12.1085 30.639 12.1297 30.7003 12.1695C30.7617 12.2092 30.8102 12.2659 30.8401 12.3327L30.8417 12.3343Z" fill="#FFDC78"/>
<path d="M138.45 71.8991C138.981 70.7043 140.618 70.6462 141.259 71.7199L141.352 71.8991L142.99 75.5854C144.42 78.8031 146.799 81.5075 149.807 83.3369L150.314 83.634L153.222 85.2688C153.453 85.3983 153.648 85.5835 153.789 85.8077C153.931 86.0318 154.014 86.2877 154.031 86.5522C154.048 86.8166 153.998 87.081 153.887 87.3215C153.776 87.5619 153.606 87.7706 153.393 87.9286L153.223 88.0387L150.314 89.6736C147.244 91.4002 144.775 94.0228 143.237 97.1908L142.99 97.7222L141.352 101.408C140.82 102.603 139.184 102.661 138.543 101.588L138.45 101.408L136.812 97.7222C135.381 94.5044 133.003 91.8 129.994 89.9707L129.488 89.6736L126.58 88.0387C126.349 87.9093 126.153 87.724 126.012 87.4999C125.871 87.2757 125.788 87.0198 125.771 86.7554C125.754 86.491 125.803 86.2265 125.915 85.9861C126.026 85.7456 126.196 85.5369 126.408 85.3789L126.578 85.2688L129.488 83.634C132.557 81.9074 135.027 79.2847 136.565 76.1167L136.812 75.5854L138.45 71.8991ZM152.824 71.1241C153.604 72.8966 154.935 74.3706 156.619 75.3276C156.87 75.469 156.87 75.8306 156.619 75.9721C154.934 76.9292 153.603 78.4038 152.823 80.1772C152.793 80.2439 152.744 80.3006 152.683 80.3404C152.621 80.3802 152.55 80.4013 152.477 80.4013C152.404 80.4013 152.332 80.3802 152.271 80.3404C152.209 80.3006 152.161 80.2439 152.131 80.1772C151.35 78.4043 150.019 76.9303 148.334 75.9737C148.278 75.9412 148.23 75.8943 148.197 75.8377C148.165 75.7811 148.147 75.7169 148.147 75.6514C148.147 75.5859 148.165 75.5217 148.197 75.4651C148.23 75.4085 148.278 75.3616 148.334 75.3291C150.019 74.3717 151.351 72.8965 152.131 71.1225C152.161 71.0557 152.209 70.999 152.271 70.9593C152.332 70.9195 152.404 70.8983 152.477 70.8983C152.55 70.8983 152.621 70.9195 152.683 70.9593C152.744 70.999 152.793 71.0557 152.823 71.1225L152.824 71.1241Z" fill="#FFDC78"/>
<defs>
<linearGradient id="paint0_linear_34_23" x1="54.6274" y1="1.71802" x2="54.6274" y2="105.518" gradientUnits="userSpaceOnUse">
<stop stop-color="#B9978C"/>
<stop offset="1" stop-color="#E8CEB1"/>
</linearGradient>
</defs>
</svg>
