<svg width="102" height="76" viewBox="0 0 102 76" fill="none" xmlns="http://www.w3.org/2000/svg">
<rect x="1.80176" y="2.43201" width="98.3951" height="71.9954" rx="7.53244" fill="url(#paint0_linear_25_63)" stroke="#E4BFA4" stroke-width="3"/>
<path d="M4.57812 5.80298L50.7425 43.9532L98.5174 5.02075" stroke="#E4BFA4" stroke-width="3"/>
<path d="M62.7793 34.1831L62.7785 34.1823C62.0551 33.4732 61.2021 32.9096 60.266 32.5223L60.2647 32.5218C59.2937 32.1184 58.2521 31.9119 57.2006 31.9143L57.1983 31.9143C55.7202 31.9143 54.2799 32.319 53.0292 33.082L53.0291 33.082C52.7299 33.2646 52.4463 33.4646 52.1781 33.6822L51.5481 34.1931L50.9182 33.6822C50.65 33.4646 50.3664 33.2646 50.0672 33.082L50.0671 33.082C48.8164 32.319 47.3761 31.9143 45.898 31.9143C44.8318 31.9143 43.8033 32.1181 42.8315 32.5218L42.8304 32.5222C41.8908 32.9112 41.045 33.4701 40.3175 34.1826L40.3161 34.1839L40.3161 34.1839C39.5944 34.8881 39.0179 35.727 38.6193 36.6532L62.7793 34.1831ZM62.7793 34.1831C63.5003 34.8883 64.077 35.7273 64.477 36.6532L62.7793 34.1831ZM44.4908 50.6105L44.4909 50.6106C46.0196 52.0223 47.5447 53.2191 48.7057 54.0738C49.2854 54.5006 49.7723 54.8406 50.1209 55.0779C50.2952 55.1966 50.4346 55.2894 50.5334 55.3543C50.5829 55.3868 50.6219 55.4121 50.6497 55.4301C50.6743 55.4459 50.687 55.4539 50.6902 55.4559C50.6909 55.4564 50.6911 55.4565 50.6909 55.4564L50.6988 55.4613L50.7066 55.4663L51.5032 55.9772C51.5033 55.9772 51.5034 55.9773 51.5035 55.9773C51.529 55.9935 51.5638 55.9935 51.5893 55.9774C51.5895 55.9773 51.5896 55.9772 51.5897 55.9772L52.3863 55.4663L52.3865 55.4662C52.4981 55.3946 55.535 53.4398 58.6024 50.6102C60.4477 48.9065 61.9105 47.2471 62.961 45.6809L44.4908 50.6105ZM44.4908 50.6105C42.6452 48.9066 41.1823 47.2469 40.1316 45.6805L44.4908 50.6105ZM64.4809 42.8166L64.4818 42.8143C64.8986 41.7243 65.0997 40.6761 65.0997 39.6911V39.6883C65.1027 38.6372 64.8918 37.617 64.4771 36.6533L64.4809 42.8166ZM64.4809 42.8166C64.1356 43.7262 63.625 44.6898 62.9611 45.6808L64.4809 42.8166ZM37.9932 39.6911C37.9932 38.6381 38.2045 37.617 38.6192 36.6533L38.6109 42.8138C38.1942 41.724 37.9932 40.676 37.9932 39.6911ZM40.1316 45.6804C39.4691 44.6915 38.9608 43.7271 38.6111 42.8143L40.1316 45.6804Z" fill="url(#paint1_linear_25_63)" stroke="#DB6868" stroke-width="2"/>
<defs>
<linearGradient id="paint0_linear_25_63" x1="50.9993" y1="0.932007" x2="50.9993" y2="75.9274" gradientUnits="userSpaceOnUse">
<stop stop-color="#FFECD6"/>
<stop offset="1" stop-color="#E4CDB2" stop-opacity="0"/>
</linearGradient>
<linearGradient id="paint1_linear_25_63" x1="51.5465" y1="30.9143" x2="51.5465" y2="56.9895" gradientUnits="userSpaceOnUse">
<stop stop-color="#EF9E9E"/>
<stop offset="1" stop-color="#FF9494"/>
</linearGradient>
</defs>
</svg>
