<svg width="9" height="15" viewBox="0 0 9 15" fill="none" xmlns="http://www.w3.org/2000/svg">
<path d="M8.36296 0.631119C8.47884 0.746761 8.57077 0.884122 8.6335 1.03534C8.69623 1.18656 8.72852 1.34866 8.72852 1.51237C8.72852 1.67608 8.69623 1.83818 8.6335 1.9894C8.57077 2.14062 8.47884 2.27798 8.36296 2.39362L3.51296 7.24362L8.36296 12.0936C8.59668 12.3273 8.72799 12.6443 8.72799 12.9749C8.72799 13.3054 8.59668 13.6224 8.36296 13.8561C8.12924 14.0898 7.81224 14.2211 7.48171 14.2211C7.15118 14.2211 6.83418 14.0898 6.60046 13.8561L0.86296 8.11862C0.747081 8.00298 0.655147 7.86562 0.59242 7.7144C0.529693 7.56318 0.497406 7.40108 0.497406 7.23737C0.497406 7.07366 0.529693 6.91155 0.59242 6.76034C0.655147 6.60912 0.747081 6.47176 0.86296 6.35612L6.60046 0.618619C7.07546 0.143619 7.87546 0.143619 8.36296 0.631119Z" fill="#677A90"/>
</svg>
